<svg xmlns="http://www.w3.org/2000/svg" width="25.828" height="25.828" viewBox="0 0 25.828 25.828">
  <path id="Icon_awesome-link" data-name="Icon awesome-link" d="M12.657,7.184a5.887,5.887,0,0,1,.014,8.316l-.014.014-2.6,2.6a5.89,5.89,0,0,1-8.33-8.33L3.16,8.35a.619.619,0,0,1,1.058.411A7.141,7.141,0,0,0,4.594,10.8a.624.624,0,0,1-.147.644l-.507.507a2.79,2.79,0,1,0,3.92,3.971l2.6-2.6a2.789,2.789,0,0,0,0-3.946,2.9,2.9,0,0,0-.4-.332.621.621,0,0,1-.269-.488A1.544,1.544,0,0,1,10.248,7.4l.816-.816a.623.623,0,0,1,.8-.067,5.909,5.909,0,0,1,.8.666Zm5.461-5.462a5.9,5.9,0,0,0-8.33,0l-2.6,2.6-.014.014a5.891,5.891,0,0,0,.809,8.982.623.623,0,0,0,.8-.067l.816-.816a1.544,1.544,0,0,0,.453-1.155.621.621,0,0,0-.269-.488,2.9,2.9,0,0,1-.4-.332,2.789,2.789,0,0,1,0-3.946l2.6-2.6A2.79,2.79,0,1,1,15.9,7.885l-.507.507a.624.624,0,0,0-.147.644,7.141,7.141,0,0,1,.375,2.043.619.619,0,0,0,1.058.411l1.438-1.438a5.9,5.9,0,0,0,0-8.33Z" transform="translate(0 7.432) rotate(-22)"/>
</svg>
